<svg width="143" height="37" viewBox="0 0 143 37" fill="none" xmlns="http://www.w3.org/2000/svg">
<path d="M2.45806 23.4231C-0.638971 20.4972 -0.901226 16.0327 2.1958 13.1069L16.0696 0L21.6772 5.2977C24.7743 8.22352 24.7743 12.9672 21.6772 15.8931L8.5 29.5L2.45806 23.4231Z" fill="#272727"/>
<path d="M23 29.3696L4.2564 11L2.13753 13.0673C-0.900572 16.0314 -0.607926 20.7533 2.43018 23.7174L15.6658 37L23 29.3696Z" fill="black"/>
<path d="M8 29.3247L21.3849 16L23.8115 18.4156C26.7295 21.3204 26.7295 26.0302 23.8115 28.9351L15.7101 37L8 29.3247Z" fill="#4D4D4D"/>
<path d="M32.975 10.3H38.925C39.775 10.3 40.5917 10.3833 41.375 10.55C42.175 10.7167 42.875 11 43.475 11.4C44.075 11.7833 44.55 12.3083 44.9 12.975C45.2667 13.625 45.45 14.4417 45.45 15.425C45.45 16.5417 45.2583 17.4417 44.875 18.125C44.4917 18.8083 43.975 19.3417 43.325 19.725C42.675 20.0917 41.9167 20.3417 41.05 20.475C40.2 20.6083 39.3083 20.675 38.375 20.675H36.125V28H32.975V10.3ZM38.025 17.975C38.475 17.975 38.9417 17.9583 39.425 17.925C39.9083 17.8917 40.35 17.7917 40.75 17.625C41.1667 17.4583 41.5 17.2083 41.75 16.875C42.0167 16.5417 42.15 16.075 42.15 15.475C42.15 14.925 42.0333 14.4917 41.8 14.175C41.5667 13.8417 41.2667 13.5917 40.9 13.425C40.5333 13.2417 40.125 13.125 39.675 13.075C39.225 13.025 38.7917 13 38.375 13H36.125V17.975H38.025ZM49.1332 23.05C49.2332 23.95 49.5832 24.65 50.1832 25.15C50.7832 25.65 51.5082 25.9 52.3582 25.9C53.1082 25.9 53.7332 25.75 54.2332 25.45C54.7499 25.1333 55.1999 24.7417 55.5832 24.275L57.7332 25.9C57.0332 26.7667 56.2499 27.3833 55.3832 27.75C54.5165 28.1167 53.6082 28.3 52.6582 28.3C51.7582 28.3 50.9082 28.15 50.1082 27.85C49.3082 27.55 48.6165 27.125 48.0332 26.575C47.4499 26.025 46.9832 25.3667 46.6332 24.6C46.2999 23.8167 46.1332 22.95 46.1332 22C46.1332 21.05 46.2999 20.1917 46.6332 19.425C46.9832 18.6417 47.4499 17.975 48.0332 17.425C48.6165 16.875 49.3082 16.45 50.1082 16.15C50.9082 15.85 51.7582 15.7 52.6582 15.7C53.4915 15.7 54.2499 15.85 54.9332 16.15C55.6332 16.4333 56.2249 16.85 56.7082 17.4C57.2082 17.95 57.5915 18.6333 57.8582 19.45C58.1415 20.25 58.2832 21.175 58.2832 22.225V23.05H49.1332ZM55.2832 20.8C55.2665 19.9167 54.9915 19.225 54.4582 18.725C53.9249 18.2083 53.1832 17.95 52.2332 17.95C51.3332 17.95 50.6165 18.2083 50.0832 18.725C49.5665 19.2417 49.2499 19.9333 49.1332 20.8H55.2832ZM59.8887 9.1H62.8887V28H59.8887V9.1ZM72.5828 26.35H72.5078C72.0745 27.0333 71.5245 27.5333 70.8578 27.85C70.1911 28.15 69.4578 28.3 68.6578 28.3C68.1078 28.3 67.5661 28.225 67.0328 28.075C66.5161 27.925 66.0495 27.7 65.6328 27.4C65.2328 27.1 64.9078 26.725 64.6578 26.275C64.4078 25.825 64.2828 25.3 64.2828 24.7C64.2828 24.05 64.3995 23.5 64.6328 23.05C64.8661 22.5833 65.1745 22.2 65.5578 21.9C65.9578 21.5833 66.4161 21.3333 66.9328 21.15C67.4495 20.9667 67.9828 20.8333 68.5328 20.75C69.0995 20.65 69.6661 20.5917 70.2328 20.575C70.7995 20.5417 71.3328 20.525 71.8328 20.525H72.5828V20.2C72.5828 19.45 72.3245 18.8917 71.8078 18.525C71.2911 18.1417 70.6328 17.95 69.8328 17.95C69.1995 17.95 68.6078 18.0667 68.0578 18.3C67.5078 18.5167 67.0328 18.8167 66.6328 19.2L65.0578 17.625C65.7245 16.9417 66.4995 16.45 67.3828 16.15C68.2828 15.85 69.2078 15.7 70.1578 15.7C71.0078 15.7 71.7245 15.8 72.3078 16C72.8911 16.1833 73.3745 16.425 73.7578 16.725C74.1411 17.025 74.4328 17.375 74.6328 17.775C74.8495 18.1583 74.9995 18.55 75.0828 18.95C75.1828 19.35 75.2411 19.7417 75.2578 20.125C75.2745 20.4917 75.2828 20.8167 75.2828 21.1V28H72.5828V26.35ZM72.4078 22.625H71.7828C71.3661 22.625 70.8995 22.6417 70.3828 22.675C69.8661 22.7083 69.3745 22.7917 68.9078 22.925C68.4578 23.0417 68.0745 23.225 67.7578 23.475C67.4411 23.7083 67.2828 24.0417 67.2828 24.475C67.2828 24.7583 67.3411 25 67.4578 25.2C67.5911 25.3833 67.7578 25.5417 67.9578 25.675C68.1578 25.8083 68.3828 25.9083 68.6328 25.975C68.8828 26.025 69.1328 26.05 69.3828 26.05C70.4161 26.05 71.1745 25.8083 71.6578 25.325C72.1578 24.825 72.4078 24.15 72.4078 23.3V22.625ZM89.6105 16V26.925C89.6105 28.0083 89.4772 28.9833 89.2105 29.85C88.9439 30.7333 88.5272 31.475 87.9605 32.075C87.4105 32.6917 86.7105 33.1667 85.8605 33.5C85.0105 33.8333 84.0022 34 82.8355 34C81.7189 34 80.6605 33.8583 79.6605 33.575C78.6605 33.2917 77.7355 32.775 76.8855 32.025L78.6855 29.575C79.2855 30.125 79.9105 30.55 80.5605 30.85C81.2105 31.15 81.9605 31.3 82.8105 31.3C83.5272 31.3 84.1272 31.2 84.6105 31C85.1105 30.8 85.5022 30.525 85.7855 30.175C86.0855 29.825 86.2939 29.4 86.4105 28.9C86.5439 28.4167 86.6105 27.875 86.6105 27.275V26.4H86.5605C86.1272 26.9833 85.5522 27.425 84.8355 27.725C84.1189 28.0083 83.3855 28.15 82.6355 28.15C81.7355 28.15 80.9189 27.9917 80.1855 27.675C79.4522 27.3417 78.8189 26.9 78.2855 26.35C77.7689 25.8 77.3689 25.15 77.0855 24.4C76.8022 23.65 76.6605 22.85 76.6605 22C76.6605 21.1167 76.7939 20.2917 77.0605 19.525C77.3272 18.7583 77.7189 18.0917 78.2355 17.525C78.7522 16.9583 79.3689 16.5167 80.0855 16.2C80.8189 15.8667 81.6522 15.7 82.5855 15.7C83.4355 15.7 84.2272 15.8667 84.9605 16.2C85.6939 16.5333 86.2772 17.0667 86.7105 17.8H86.7605V16H89.6105ZM83.2105 18.4C82.6772 18.4 82.1939 18.4917 81.7605 18.675C81.3272 18.8417 80.9522 19.0833 80.6355 19.4C80.3355 19.7 80.0939 20.075 79.9105 20.525C79.7439 20.9583 79.6605 21.4417 79.6605 21.975C79.6605 22.4583 79.7439 22.9083 79.9105 23.325C80.0939 23.7417 80.3439 24.1083 80.6605 24.425C80.9772 24.7417 81.3522 24.9917 81.7855 25.175C82.2189 25.3583 82.6855 25.45 83.1855 25.45C83.7355 25.45 84.2272 25.3583 84.6605 25.175C85.1105 24.9917 85.4855 24.75 85.7855 24.45C86.1022 24.1333 86.3439 23.7583 86.5105 23.325C86.6772 22.8917 86.7605 22.425 86.7605 21.925C86.7605 20.875 86.4439 20.025 85.8105 19.375C85.1772 18.725 84.3105 18.4 83.2105 18.4ZM91.1576 22C91.1576 21.05 91.3243 20.1917 91.6576 19.425C92.0076 18.6417 92.4743 17.975 93.0576 17.425C93.641 16.875 94.3326 16.45 95.1326 16.15C95.9326 15.85 96.7826 15.7 97.6826 15.7C98.5826 15.7 99.4326 15.85 100.233 16.15C101.033 16.45 101.724 16.875 102.308 17.425C102.891 17.975 103.349 18.6417 103.683 19.425C104.033 20.1917 104.208 21.05 104.208 22C104.208 22.95 104.033 23.8167 103.683 24.6C103.349 25.3667 102.891 26.025 102.308 26.575C101.724 27.125 101.033 27.55 100.233 27.85C99.4326 28.15 98.5826 28.3 97.6826 28.3C96.7826 28.3 95.9326 28.15 95.1326 27.85C94.3326 27.55 93.641 27.125 93.0576 26.575C92.4743 26.025 92.0076 25.3667 91.6576 24.6C91.3243 23.8167 91.1576 22.95 91.1576 22ZM94.1576 22C94.1576 22.4667 94.2326 22.9167 94.3826 23.35C94.5493 23.7833 94.7826 24.1667 95.0826 24.5C95.3993 24.8333 95.7743 25.1 96.2076 25.3C96.641 25.5 97.1326 25.6 97.6826 25.6C98.2326 25.6 98.7243 25.5 99.1576 25.3C99.591 25.1 99.9576 24.8333 100.258 24.5C100.574 24.1667 100.808 23.7833 100.958 23.35C101.124 22.9167 101.208 22.4667 101.208 22C101.208 21.5333 101.124 21.0833 100.958 20.65C100.808 20.2167 100.574 19.8333 100.258 19.5C99.9576 19.1667 99.591 18.9 99.1576 18.7C98.7243 18.5 98.2326 18.4 97.6826 18.4C97.1326 18.4 96.641 18.5 96.2076 18.7C95.7743 18.9 95.3993 19.1667 95.0826 19.5C94.7826 19.8333 94.5493 20.2167 94.3826 20.65C94.2326 21.0833 94.1576 21.5333 94.1576 22ZM105.766 16H108.766V17.9H108.816C109.15 17.2 109.625 16.6583 110.241 16.275C110.858 15.8917 111.566 15.7 112.366 15.7C112.55 15.7 112.725 15.7167 112.891 15.75C113.075 15.7833 113.258 15.825 113.441 15.875V18.775C113.191 18.7083 112.941 18.6583 112.691 18.625C112.458 18.575 112.225 18.55 111.991 18.55C111.291 18.55 110.725 18.6833 110.291 18.95C109.875 19.2 109.55 19.4917 109.316 19.825C109.1 20.1583 108.95 20.4917 108.866 20.825C108.8 21.1583 108.766 21.4083 108.766 21.575V28H105.766V16ZM114.673 16H117.523V17.925H117.573C117.856 17.325 118.289 16.8083 118.873 16.375C119.456 15.925 120.248 15.7 121.248 15.7C122.048 15.7 122.723 15.8333 123.273 16.1C123.839 16.3667 124.298 16.7167 124.648 17.15C124.998 17.5833 125.248 18.0833 125.398 18.65C125.548 19.2167 125.623 19.8083 125.623 20.425V28H122.623V21.925C122.623 21.5917 122.606 21.225 122.573 20.825C122.539 20.4083 122.448 20.025 122.298 19.675C122.164 19.3083 121.948 19.0083 121.648 18.775C121.348 18.525 120.939 18.4 120.423 18.4C119.923 18.4 119.498 18.4833 119.148 18.65C118.814 18.8167 118.531 19.0417 118.298 19.325C118.081 19.6083 117.923 19.9333 117.823 20.3C117.723 20.6667 117.673 21.05 117.673 21.45V28H114.673V16ZM127.828 16H130.828V28H127.828V16ZM127.403 11.925C127.403 11.4417 127.578 11.025 127.928 10.675C128.295 10.3083 128.753 10.125 129.303 10.125C129.853 10.125 130.311 10.3 130.678 10.65C131.061 10.9833 131.253 11.4083 131.253 11.925C131.253 12.4417 131.061 12.875 130.678 13.225C130.311 13.5583 129.853 13.725 129.303 13.725C128.753 13.725 128.295 13.55 127.928 13.2C127.578 12.8333 127.403 12.4083 127.403 11.925ZM139.422 19.325C138.839 18.5083 138.056 18.1 137.072 18.1C136.672 18.1 136.281 18.2 135.897 18.4C135.514 18.6 135.322 18.925 135.322 19.375C135.322 19.7417 135.481 20.0083 135.797 20.175C136.114 20.3417 136.514 20.4833 136.997 20.6C137.481 20.7167 137.997 20.8417 138.547 20.975C139.114 21.0917 139.639 21.2833 140.122 21.55C140.606 21.8 141.006 22.15 141.322 22.6C141.639 23.05 141.797 23.6667 141.797 24.45C141.797 25.1667 141.639 25.775 141.322 26.275C141.022 26.7583 140.622 27.15 140.122 27.45C139.639 27.75 139.089 27.9667 138.472 28.1C137.856 28.2333 137.239 28.3 136.622 28.3C135.689 28.3 134.831 28.1667 134.047 27.9C133.264 27.6333 132.564 27.15 131.947 26.45L133.947 24.575C134.331 25.0083 134.739 25.3667 135.172 25.65C135.622 25.9167 136.164 26.05 136.797 26.05C137.014 26.05 137.239 26.025 137.472 25.975C137.706 25.925 137.922 25.8417 138.122 25.725C138.322 25.6083 138.481 25.4667 138.597 25.3C138.731 25.1167 138.797 24.9083 138.797 24.675C138.797 24.2583 138.639 23.95 138.322 23.75C138.006 23.55 137.606 23.3917 137.122 23.275C136.639 23.1417 136.114 23.025 135.547 22.925C134.997 22.8083 134.481 22.6333 133.997 22.4C133.514 22.15 133.114 21.8083 132.797 21.375C132.481 20.9417 132.322 20.3417 132.322 19.575C132.322 18.9083 132.456 18.3333 132.722 17.85C133.006 17.35 133.372 16.9417 133.822 16.625C134.272 16.3083 134.789 16.075 135.372 15.925C135.956 15.775 136.547 15.7 137.147 15.7C137.947 15.7 138.739 15.8417 139.522 16.125C140.306 16.3917 140.939 16.8583 141.422 17.525L139.422 19.325Z" fill="#272727"/>
</svg>
