<svg width="48" height="48" viewBox="0 0 48 48" fill="none" xmlns="http://www.w3.org/2000/svg">
<path fill-rule="evenodd" clip-rule="evenodd" d="M37.9919 10.1824C38.0973 9.00972 37.1633 8 35.973 8H12.027C10.8367 8 9.90268 9.00972 10.0081 10.1824L12.2836 35.488C12.3583 36.3191 12.9457 37.0176 13.7584 37.2416L23.4985 39.9264C23.8558 40.0249 24.2336 40.0245 24.5907 39.9253L34.2452 37.2434C35.056 37.0182 35.6415 36.3206 35.7161 35.4909L37.9919 10.1824ZM31.9075 17.0251C31.885 17.3642 31.6903 17.6689 31.3903 17.8346L25.9196 20.8562C25.7372 20.957 25.8095 21.2318 26.0184 21.2318H30.4039C30.9939 21.2318 31.4592 21.7284 31.4144 22.3103L30.7228 31.2877C30.6915 31.6943 30.4142 32.0416 30.0216 32.1661L24.3469 33.9651C24.1468 34.0285 23.9318 34.0288 23.7315 33.9661L17.9823 32.1649C17.5876 32.0412 17.3087 31.6926 17.2777 31.2843L17.0504 28.2928C16.9778 27.336 17.743 26.5201 18.713 26.5201C19.6021 26.5201 20.3347 27.2101 20.3783 28.0884L20.4032 28.5898C20.4242 29.0124 20.7112 29.3765 21.1205 29.4997L23.7411 30.2883C23.9354 30.3468 24.1431 30.3461 24.3371 30.2864L26.8902 29.501C27.294 29.3767 27.5774 29.0174 27.601 28.5997L27.7578 25.8229C27.7903 25.2482 27.3279 24.7646 26.746 24.7646H17.6907C17.1637 24.7646 16.7246 24.365 16.6807 23.8456L16.4977 21.6785C16.4647 21.2875 16.6653 20.9134 17.0111 20.7212L22.0065 17.9442C22.1884 17.8431 22.1158 17.5689 21.9072 17.5689H17.8643C16.9365 17.5689 16.1613 16.8702 16.0753 15.9564C15.9772 14.9143 16.8062 14.0144 17.8643 14.0144H31.0253C31.6111 14.0144 32.0749 14.5043 32.0365 15.0826L31.9075 17.0251Z" fill="black"/>
</svg>
