<svg width="24" height="24" viewBox="0 0 24 24" fill="none" xmlns="http://www.w3.org/2000/svg">
<path fill-rule="evenodd" clip-rule="evenodd" d="M12.643 4.05101C12.9775 3.94609 13.3433 4.00489 13.6274 4.21019L13.7632 4.32542L19.6733 10.2336L19.7475 10.3147C19.9097 10.5126 19.9995 10.7625 19.9995 11.0207V16.1965C19.9995 16.8111 19.5004 17.3096 18.8862 17.3098H17.3071V18.8879C17.3071 19.5025 16.808 20.0001 16.1938 20.0002H11.0151C10.7204 20.0001 10.4375 19.8833 10.229 19.675L4.32565 13.7746C3.97812 13.4272 3.9002 12.8929 4.13327 12.4602L7.11081 6.93187L7.20846 6.7512L12.478 4.11741L12.643 4.05101ZM8.186 15.7951L11.0932 18.7004H16.0073V16.9192L8.30514 8.83519L8.186 15.7951ZM10.437 6.59007H14.1899L12.9389 5.33909L10.437 6.59007Z" fill="black"/>
</svg>
