<svg width="48" height="48" viewBox="0 0 48 48" fill="none" xmlns="http://www.w3.org/2000/svg">
<path fill-rule="evenodd" clip-rule="evenodd" d="M18.9646 11.1871L20.8449 9.30692C22.5874 7.56436 25.4126 7.56436 27.1551 9.30692L38.6931 20.8448C40.4356 22.5874 40.4356 25.4126 38.6931 27.1552L27.1551 38.6931C25.4126 40.4356 22.5874 40.4356 20.8449 38.6931L9.30691 27.1552C7.56436 25.4126 7.56436 22.5874 9.30691 20.8448L17.0844 13.0674L22.0601 17.9527C22.0208 18.1289 22 18.312 22 18.5C22 19.1849 22.2754 19.8055 22.7216 20.257V30.3512C21.99 30.7874 21.5 31.5865 21.5 32.5C21.5 33.8807 22.6193 35 24 35C25.3807 35 26.5 33.8807 26.5 32.5C26.5 31.6045 26.0292 30.8189 25.3215 30.3774V21.2496L29.0469 25.0155C29.0161 25.1722 29 25.3342 29 25.5C29 26.8807 30.1193 28 31.5 28C32.8807 28 34 26.8807 34 25.5C34 24.1193 32.8807 23 31.5 23C31.2594 23 31.0268 23.034 30.8066 23.0974L26.9119 19.1603C26.9694 18.95 27 18.7285 27 18.5C27 17.1193 25.8807 16 24.5 16C24.2809 16 24.0684 16.0282 23.8658 16.0811L18.9646 11.1871Z" fill="black"/>
</svg>
