<svg width="48" height="48" viewBox="0 0 48 48" fill="none" xmlns="http://www.w3.org/2000/svg">
<path fill-rule="evenodd" clip-rule="evenodd" d="M37.9919 10.1824C38.0973 9.00972 37.1633 8 35.973 8H12.027C10.8367 8 9.90268 9.00972 10.0081 10.1824L12.2836 35.488C12.3583 36.3191 12.9457 37.0176 13.7584 37.2416L23.4985 39.9264C23.8558 40.0249 24.2336 40.0245 24.5907 39.9253L34.2452 37.2434C35.056 37.0182 35.6415 36.3206 35.7161 35.4909L37.9919 10.1824ZM31.9754 15.7466C31.9113 16.587 31.2033 17.2365 30.3513 17.2365H20.0444C19.7487 17.2365 19.5158 17.4858 19.5392 17.7773L19.705 19.8422C19.7257 20.1001 19.9415 20.3001 20.2031 20.3037L30.4401 20.4435C31.0303 20.4516 31.4887 20.9549 31.4354 21.5364L30.6971 29.5904C30.6588 30.0082 30.3615 30.3582 29.9521 30.4676L24.2642 31.9871C24.0912 32.0334 23.9088 32.0334 23.7358 31.9871L18.0442 30.4667C17.6366 30.3578 17.3399 30.0103 17.2997 29.5945L17.0464 26.9786C16.9546 26.0309 17.708 25.2109 18.6705 25.2109C19.5104 25.2109 20.213 25.8416 20.2944 26.6684L20.3628 27.3634C20.3832 27.5708 20.5312 27.7441 20.7345 27.7986L23.8658 28.6386C23.9537 28.6622 24.0463 28.6619 24.134 28.6378L27.1945 27.7977C27.3923 27.7434 27.5375 27.5764 27.5621 27.3748L27.9443 24.2417C27.9807 23.9433 27.7452 23.6805 27.4413 23.6805H17.6435C17.1166 23.6805 16.6776 23.2811 16.6336 22.7618L15.9845 15.1005C15.935 14.516 16.4013 14.0144 16.9944 14.0144H30.3513C31.2991 14.0144 32.0467 14.8118 31.9754 15.7466Z" fill="black"/>
</svg>
