<svg width="48" height="48" viewBox="0 0 48 48" fill="none" xmlns="http://www.w3.org/2000/svg">
<path fill-rule="evenodd" clip-rule="evenodd" d="M12 8C9.79086 8 8 9.79086 8 12V36C8 38.2091 9.79086 40 12 40H36C38.2091 40 40 38.2091 40 36V12C40 9.79086 38.2091 8 36 8H12ZM26.1724 21.2639C26.1881 20.5706 25.6304 20 24.9369 20C24.2544 20 23.7011 20.5533 23.7011 21.2358V30.5C23.7011 31.0374 23.5087 31.5571 23.1587 31.965C22.8089 32.3729 22.3245 32.6421 21.7934 32.7238C21.2621 32.8056 20.7193 32.6945 20.2628 32.4107C20.1288 32.3273 20.0048 32.2306 19.8924 32.1226C19.4442 31.6921 18.8248 31.3281 18.2323 31.515C17.6398 31.7018 17.2999 32.3451 17.6276 32.873C17.9898 33.4565 18.4833 33.9536 19.0747 34.3214C19.9876 34.889 21.0733 35.1111 22.1356 34.9476C23.1979 34.7841 24.1666 34.2458 24.8665 33.43C25.5663 32.6142 25.9511 32.0748 25.9511 31L26.1724 21.2639ZM28 22C28 21 29 20 30 20H34.8921C35.5039 20 36 20.4961 36 21.1079C36 21.7198 35.5039 22.2159 34.8921 22.2159H30.9186C30.6425 22.2159 30.4186 22.4398 30.4186 22.7159V26.3182C30.4186 26.5943 30.6425 26.8182 30.9186 26.8182H34C34.9297 26.8182 36 28 36 29V33C36 34 35 35 34 35H29.1079C28.4961 35 28 34.504 28 33.8921C28 33.2802 28.4961 32.7841 29.1079 32.7841H33.0814C33.3576 32.7841 33.5814 32.5602 33.5814 32.2841V29.5C33.5814 29.2238 33.3576 29 33.0814 29H30C29 29 28 28 28 27V22Z" fill="black"/>
</svg>
