<svg width="48" height="48" viewBox="0 0 48 48" fill="none" xmlns="http://www.w3.org/2000/svg">
<path d="M40 17.425C40 16.638 39.3915 16 38.6409 16C37.8903 16 37.2818 16.638 37.2818 17.425V23.7379L34.8999 17.496C34.2585 15.8153 31.8757 16.2965 31.8757 18.1068V30.575C31.8757 31.362 32.4842 32 33.2348 32C33.9854 32 34.5939 31.362 34.5939 30.575V24.3662L36.9759 30.608C37.6172 32.2888 40 31.8075 40 29.9972V17.425Z" fill="black"/>
<path d="M13.3825 17.4523C13.3825 16.6653 12.774 16.0273 12.0234 16.0273C11.2728 16.0273 10.6643 16.6653 10.6643 17.4523V28.8331H9.35909C8.60849 28.8331 8 29.4711 8 30.2581C8 31.0451 8.60849 31.6831 9.35909 31.6831H10.9779C12.3059 31.6831 13.3825 30.5544 13.3825 29.162V17.4523Z" fill="black"/>
<path fill-rule="evenodd" clip-rule="evenodd" d="M25.0885 16.0273C24.0492 16.0273 23.2067 16.9106 23.2067 18.0003V29.7101C23.2067 30.7998 24.0492 31.6831 25.0885 31.6831H28.3059C29.3452 31.6831 30.1877 30.7998 30.1877 29.7101V18.0003C30.1877 16.9106 29.3452 16.0273 28.3059 16.0273H25.0885ZM25.9249 28.8331V18.8773H27.4695V28.8331H25.9249Z" fill="black"/>
<path d="M15.6033 18.0003C15.6033 16.9106 16.4459 16.0273 17.4851 16.0273H20.1596C20.9102 16.0273 21.5187 16.6653 21.5187 17.4523C21.5187 18.2393 20.9102 18.8773 20.1596 18.8773H18.3215V22.4302H19.6369C20.6762 22.4302 21.5187 23.3136 21.5187 24.4033V29.7101C21.5187 30.7998 20.6762 31.6831 19.6369 31.6831H16.4296C15.679 31.6831 15.0705 31.0451 15.0705 30.2581C15.0705 29.4711 15.679 28.8331 16.4296 28.8331H18.8005V25.2802H17.4851C16.4458 25.2802 15.6033 24.3968 15.6033 23.3071V18.0003Z" fill="black"/>
</svg>
