<svg width="48" height="48" viewBox="0 0 48 48" fill="none" xmlns="http://www.w3.org/2000/svg">
<path d="M37.7615 8C39.7464 8 40.7192 10.1957 39.2868 11.4432L25.9932 23.0207L9.85476 36.743C9.15106 37.3413 8 36.8884 8 36.0132V25.895C8 25.6297 8.11611 25.3753 8.32278 25.1878L26.9407 8.29278C27.1473 8.10531 27.4275 8 27.7196 8H37.7615Z" fill="black"/>
<path d="M39.3214 36.5601C40.7487 37.809 39.7747 40 37.7923 40H12.9651C11.9662 40 11.4829 38.8901 12.2119 38.2702L26.1884 26.3862C26.6165 26.0222 27.2838 26.0265 27.7061 26.3961L39.3214 36.5601Z" fill="black"/>
<path d="M20.5876 8C21.5692 8 22.0606 9.07729 21.3665 9.70721L9.8805 20.1302C9.18645 20.7601 8 20.3138 8 19.423V10C8 8.89543 8.98644 8 10.2033 8H20.5876Z" fill="black"/>
</svg>
