<svg width="48" height="48" viewBox="0 0 48 48" fill="none" xmlns="http://www.w3.org/2000/svg">
<path fill-rule="evenodd" clip-rule="evenodd" d="M12 14C9.79086 14 8 15.7909 8 18V30C8 32.2091 9.79086 34 12 34H36C38.2091 34 40 32.2091 40 30V18C40 15.7909 38.2091 14 36 14H12ZM31.8 20.5C31.8 19.782 31.218 19.2 30.5 19.2C29.782 19.2 29.2 19.782 29.2 20.5V24.3615L28.4192 23.5808C27.9116 23.0731 27.0884 23.0731 26.5808 23.5808C26.0731 24.0884 26.0731 24.9116 26.5808 25.4192L29.7929 28.6314C30.1834 29.0219 30.8166 29.0219 31.2071 28.6314L34.4192 25.4192C34.9269 24.9116 34.9269 24.0884 34.4192 23.5808C33.9116 23.0731 33.0884 23.0731 32.5808 23.5808L31.8 24.3615V20.5ZM16.3 28V23.706L17.8287 25.6169C18.4292 26.3675 19.5708 26.3675 20.1713 25.6169L21.7 23.706V28C21.7 28.718 22.282 29.3 23 29.3C23.718 29.3 24.3 28.718 24.3 28V20.5702C24.3 19.1522 22.5145 18.5259 21.6287 19.6331L19 22.919L16.3713 19.6331C15.4855 18.5259 13.7 19.1522 13.7 20.5702V28C13.7 28.718 14.282 29.3 15 29.3C15.718 29.3 16.3 28.718 16.3 28Z" fill="black"/>
</svg>
