<svg width="48" height="48" viewBox="0 0 48 48" fill="none" xmlns="http://www.w3.org/2000/svg">
<path fill-rule="evenodd" clip-rule="evenodd" d="M24.2038 15.2911H16.4076V11.1899C16.4076 8.4557 21.9108 8 23.2866 8C24.8032 8 26.6769 8.2975 28.0156 8.51006C28.239 8.54553 28.4475 8.57863 28.6369 8.60759C31.2051 9.21519 31.949 11.1899 32 12.1013V19.2405C32 22.4 29.4522 23.3924 28.1783 23.4937H19.9236C16.2548 23.4937 15.3376 26.3291 15.3376 27.7468V32H12.4331C9.22293 32 8.30573 27.8987 8.15287 26.9873C8.08929 26.6083 8 23.8987 8 22.5823C8.24459 17.7215 11.0573 16.4051 12.4331 16.3544H24.2038V15.2911ZM22 12C22 12.8284 21.3284 13.5 20.5 13.5C19.6716 13.5 19 12.8284 19 12C19 11.1716 19.6716 10.5 20.5 10.5C21.3284 10.5 22 11.1716 22 12Z" fill="black"/>
<path fill-rule="evenodd" clip-rule="evenodd" d="M23.7962 32.7089H31.5924V36.8101C31.5924 39.5443 26.0892 40 24.7134 40C23.1968 40 21.3231 39.7025 19.9844 39.4899C19.761 39.4545 19.5525 39.4214 19.3631 39.3924C16.7949 38.7848 16.051 36.8101 16 35.8987L16 28.7595C16 25.6 18.5478 24.6076 19.8217 24.5063H28.0764C31.7452 24.5063 32.6624 21.6709 32.6624 20.2532L32.6624 16L35.5669 16C38.7771 16 39.6943 20.1013 39.8471 21.0127C39.9107 21.3917 40 24.1013 40 25.4177C39.7554 30.2785 36.9427 31.5949 35.5669 31.6456H23.7962V32.7089ZM29 36C29 36.8284 28.3284 37.5 27.5 37.5C26.6716 37.5 26 36.8284 26 36C26 35.1716 26.6716 34.5 27.5 34.5C28.3284 34.5 29 35.1716 29 36Z" fill="black"/>
</svg>
