<svg width="48" height="48" viewBox="0 0 48 48" fill="none" xmlns="http://www.w3.org/2000/svg">
<path fill-rule="evenodd" clip-rule="evenodd" d="M24.9511 8.23612C24.3361 7.90206 23.5914 7.92375 22.9966 8.29304L10.9318 15.7836C10.3528 16.1431 10 16.78 10 17.466V31.4827C10 32.2095 10.3955 32.8775 11.0297 33.2221L23.0717 39.7639C23.6512 40.0787 24.3488 40.0787 24.9283 39.7639L36.9703 33.2221C37.6045 32.8775 38 32.2095 38 31.4827V16.5049C38 15.7781 37.6045 15.1101 36.9703 14.7655L24.9511 8.23612ZM23.8406 10.7844C23.9655 10.7069 24.1219 10.7023 24.2511 10.7725L34.3522 16.2601C34.635 16.4137 34.6419 16.8204 34.3645 16.9837L24.6777 22.6845C24.0761 23.0386 23.7062 23.6883 23.7062 24.3909V36.4973C23.7062 36.8112 23.3741 37.0114 23.1001 36.8626L12.7618 31.2462C12.6286 31.1738 12.5455 31.0336 12.5455 30.8809V18.029C12.5455 17.8849 12.6196 17.7512 12.7412 17.6757L23.8406 10.7844ZM28.6102 25.7831C28.8692 25.7489 29.1086 25.948 29.1447 26.2277L29.2083 26.7185C29.2205 26.8132 29.2999 26.8808 29.3856 26.8695L29.6561 26.8549C29.9151 26.8207 30.1544 27.0198 30.1906 27.2995C30.2268 27.5792 30.0462 27.8336 29.7871 27.8677L28.7951 27.9773C28.7094 27.9886 28.6499 28.0745 28.6621 28.1692L28.7388 28.7613C28.751 28.8559 28.8304 28.9235 28.9161 28.9122L29.8162 28.7937C30.0304 28.7654 30.2289 28.9344 30.2595 29.1711L30.4814 30.8851C30.512 31.1217 30.3632 31.3364 30.149 31.3646L29.9704 31.3882C29.8847 31.3995 29.8252 31.4853 29.8374 31.58L29.901 32.0708C29.9371 32.3505 29.7565 32.6049 29.4975 32.639C29.2384 32.6731 28.9991 32.4741 28.9629 32.1944L28.8994 31.7036C28.8871 31.6089 28.8078 31.5413 28.7221 31.5526L28.2639 31.613C28.0049 31.6471 27.7655 31.448 27.7293 31.1684C27.6931 30.8887 27.8738 30.6343 28.1328 30.6002L29.3126 30.4447C29.3982 30.4335 29.4578 30.3476 29.4455 30.2529L29.4193 30.0504C29.4071 29.9557 29.3277 29.8881 29.242 29.8994L28.3418 30.018C28.1276 30.0462 27.9292 29.8772 27.8985 29.6406L27.6263 27.537C27.5957 27.3004 27.7445 27.0857 27.9587 27.0574L28.1373 27.0339C28.223 27.0226 28.2825 26.9367 28.2702 26.8421L28.2067 26.3513C28.1705 26.0716 28.3512 25.8172 28.6102 25.7831ZM31.0796 31.9174C30.9625 31.6716 31.065 31.3765 31.3087 31.2583L32.6322 30.6163C32.8758 30.4982 33.1683 30.6016 33.2855 30.8475C33.4026 31.0933 33.3 31.3884 33.0564 31.5065L31.7329 32.1485C31.4892 32.2667 31.1967 32.1632 31.0796 31.9174Z" fill="black"/>
</svg>
