<svg width="48" height="48" viewBox="0 0 48 48" fill="none" xmlns="http://www.w3.org/2000/svg">
<path d="M25.6203 38C15.9755 38 9.85476 31.3763 8 28.0645C15.4191 33.1226 22.8381 31.3763 25.6203 29.871C23.4835 29.1773 15.4778 20.1036 11.2854 15.117C11.0796 14.9038 10.9098 14.7026 10.7821 14.5161C10.9428 14.7087 11.1108 14.9093 11.2854 15.117C13.4721 17.3814 19.7303 20.9941 22.8381 22.6452C22.1239 21.9495 17.914 16.175 15.6704 13.059C15.5523 12.9209 15.4673 12.8036 15.4191 12.7097C15.4997 12.8218 15.5836 12.9384 15.6704 13.059C17.3699 15.047 25.9216 21.355 30.2572 24.4516C33.2248 20.8387 29.6389 13.3118 27.475 10C37.1198 15.0581 38.2945 25.3548 37.6762 29.871C40.6439 31.3161 40.1493 35.8925 39.531 38C38.0472 34.3871 35.2032 34.6882 33.9667 35.2903C31.741 37.4581 27.475 38 25.6203 38Z" fill="black"/>
</svg>
