<svg width="48" height="48" viewBox="0 0 48 48" fill="none" xmlns="http://www.w3.org/2000/svg">
<path fill-rule="evenodd" clip-rule="evenodd" d="M8 12C8 9.79086 9.79086 8 12 8H36C38.2091 8 40 9.79086 40 12V36C40 38.2091 38.2091 40 36 40H12C9.79086 40 8 38.2091 8 36V12ZM30 20C29 20 28 21 28 22V27C28 28 29 29 30 29H33.0814C33.3576 29 33.5814 29.2238 33.5814 29.5V32.2841C33.5814 32.5602 33.3576 32.7841 33.0814 32.7841H29.1079C28.4961 32.7841 28 33.2802 28 33.8921C28 34.504 28.4961 35 29.1079 35H34C35 35 36 34 36 33V29C36 28 34.9297 26.8182 34 26.8182H30.9186C30.6425 26.8182 30.4186 26.5943 30.4186 26.3182V22.7159C30.4186 22.4398 30.6425 22.2159 30.9186 22.2159H34.8921C35.5039 22.2159 36 21.7198 36 21.1079C36 20.4961 35.5039 20 34.8921 20H30ZM20.5 22.8C20.6105 22.8 20.7 22.8896 20.7 23V33.7C20.7 34.418 21.282 35 22 35C22.718 35 23.3 34.418 23.3 33.7V23C23.3 22.8896 23.3895 22.8 23.5 22.8H25.7C26.418 22.8 27 22.218 27 21.5C27 20.782 26.418 20.2 25.7 20.2H18.3C17.582 20.2 17 20.782 17 21.5C17 22.218 17.582 22.8 18.3 22.8H20.5Z" fill="black"/>
</svg>
